<?xml version="1.0" encoding="utf-8"?>
<svg xmlns="http://www.w3.org/2000/svg" xmlns:xlink="http://www.w3.org/1999/xlink" width="250" height="250" viewBox="0 0 1000 1000">
<defs>
  <clipPath id="clip310">
    <rect x="0" y="0" width="1000" height="1000"/>
  </clipPath>
</defs>
<path clip-path="url(#clip310)" d="M0 1000 L1000 1000 L1000 0 L0 0  Z" fill="#ffffff" fill-rule="evenodd" fill-opacity="1"/>
<defs>
  <clipPath id="clip311">
    <rect x="200" y="100" width="701" height="701"/>
  </clipPath>
</defs>
<path clip-path="url(#clip310)" d="M98.1772 875.168 L952.756 875.168 L952.756 47.2441 L98.1772 47.2441  Z" fill="#ffffff" fill-rule="evenodd" fill-opacity="1"/>
<defs>
  <clipPath id="clip312">
    <rect x="98" y="47" width="856" height="829"/>
  </clipPath>
</defs>
<polyline clip-path="url(#clip312)" style="stroke:#000000; stroke-linecap:round; stroke-linejoin:round; stroke-width:2; stroke-opacity:0.1; fill:none" points="114.357,875.168 114.357,47.2441 "/>
<polyline clip-path="url(#clip312)" style="stroke:#000000; stroke-linecap:round; stroke-linejoin:round; stroke-width:2; stroke-opacity:0.1; fill:none" points="314.508,875.168 314.508,47.2441 "/>
<polyline clip-path="url(#clip312)" style="stroke:#000000; stroke-linecap:round; stroke-linejoin:round; stroke-width:2; stroke-opacity:0.1; fill:none" points="514.658,875.168 514.658,47.2441 "/>
<polyline clip-path="url(#clip312)" style="stroke:#000000; stroke-linecap:round; stroke-linejoin:round; stroke-width:2; stroke-opacity:0.1; fill:none" points="714.809,875.168 714.809,47.2441 "/>
<polyline clip-path="url(#clip312)" style="stroke:#000000; stroke-linecap:round; stroke-linejoin:round; stroke-width:2; stroke-opacity:0.1; fill:none" points="914.959,875.168 914.959,47.2441 "/>
<polyline clip-path="url(#clip310)" style="stroke:#000000; stroke-linecap:round; stroke-linejoin:round; stroke-width:4; stroke-opacity:1; fill:none" points="98.1772,875.168 952.756,875.168 "/>
<polyline clip-path="url(#clip310)" style="stroke:#000000; stroke-linecap:round; stroke-linejoin:round; stroke-width:4; stroke-opacity:1; fill:none" points="114.357,875.168 114.357,856.27 "/>
<polyline clip-path="url(#clip310)" style="stroke:#000000; stroke-linecap:round; stroke-linejoin:round; stroke-width:4; stroke-opacity:1; fill:none" points="314.508,875.168 314.508,856.27 "/>
<polyline clip-path="url(#clip310)" style="stroke:#000000; stroke-linecap:round; stroke-linejoin:round; stroke-width:4; stroke-opacity:1; fill:none" points="514.658,875.168 514.658,856.27 "/>
<polyline clip-path="url(#clip310)" style="stroke:#000000; stroke-linecap:round; stroke-linejoin:round; stroke-width:4; stroke-opacity:1; fill:none" points="714.809,875.168 714.809,856.27 "/>
<polyline clip-path="url(#clip310)" style="stroke:#000000; stroke-linecap:round; stroke-linejoin:round; stroke-width:4; stroke-opacity:1; fill:none" points="914.959,875.168 914.959,856.27 "/>
<path clip-path="url(#clip310)" d="M91.7417 894.887 Q88.1306 894.887 86.3019 898.451 Q84.4964 901.993 84.4964 909.123 Q84.4964 916.229 86.3019 919.794 Q88.1306 923.335 91.7417 923.335 Q95.376 923.335 97.1815 919.794 Q99.0102 916.229 99.0102 909.123 Q99.0102 901.993 97.1815 898.451 Q95.376 894.887 91.7417 894.887 M91.7417 891.183 Q97.5519 891.183 100.607 895.789 Q103.686 900.373 103.686 909.123 Q103.686 917.849 100.607 922.456 Q97.5519 927.039 91.7417 927.039 Q85.9316 927.039 82.8529 922.456 Q79.7973 917.849 79.7973 909.123 Q79.7973 900.373 82.8529 895.789 Q85.9316 891.183 91.7417 891.183 Z" fill="#000000" fill-rule="evenodd" fill-opacity="1" /><path clip-path="url(#clip310)" d="M111.904 920.488 L116.788 920.488 L116.788 926.368 L111.904 926.368 L111.904 920.488 Z" fill="#000000" fill-rule="evenodd" fill-opacity="1" /><path clip-path="url(#clip310)" d="M136.973 894.887 Q133.362 894.887 131.533 898.451 Q129.728 901.993 129.728 909.123 Q129.728 916.229 131.533 919.794 Q133.362 923.335 136.973 923.335 Q140.607 923.335 142.413 919.794 Q144.241 916.229 144.241 909.123 Q144.241 901.993 142.413 898.451 Q140.607 894.887 136.973 894.887 M136.973 891.183 Q142.783 891.183 145.839 895.789 Q148.917 900.373 148.917 909.123 Q148.917 917.849 145.839 922.456 Q142.783 927.039 136.973 927.039 Q131.163 927.039 128.084 922.456 Q125.029 917.849 125.029 909.123 Q125.029 900.373 128.084 895.789 Q131.163 891.183 136.973 891.183 Z" fill="#000000" fill-rule="evenodd" fill-opacity="1" /><path clip-path="url(#clip310)" d="M286.244 922.433 L302.563 922.433 L302.563 926.368 L280.619 926.368 L280.619 922.433 Q283.281 919.678 287.865 915.048 Q292.471 910.396 293.652 909.053 Q295.897 906.53 296.776 904.794 Q297.679 903.035 297.679 901.345 Q297.679 898.59 295.735 896.854 Q293.814 895.118 290.712 895.118 Q288.513 895.118 286.059 895.882 Q283.628 896.646 280.851 898.197 L280.851 893.475 Q283.675 892.34 286.128 891.762 Q288.582 891.183 290.619 891.183 Q295.989 891.183 299.184 893.868 Q302.378 896.553 302.378 901.044 Q302.378 903.174 301.568 905.095 Q300.781 906.993 298.675 909.586 Q298.096 910.257 294.994 913.474 Q291.892 916.669 286.244 922.433 Z" fill="#000000" fill-rule="evenodd" fill-opacity="1" /><path clip-path="url(#clip310)" d="M312.378 920.488 L317.262 920.488 L317.262 926.368 L312.378 926.368 L312.378 920.488 Z" fill="#000000" fill-rule="evenodd" fill-opacity="1" /><path clip-path="url(#clip310)" d="M327.494 891.808 L345.85 891.808 L345.85 895.743 L331.776 895.743 L331.776 904.215 Q332.795 903.868 333.813 903.706 Q334.832 903.521 335.85 903.521 Q341.637 903.521 345.017 906.692 Q348.397 909.863 348.397 915.28 Q348.397 920.859 344.924 923.96 Q341.452 927.039 335.133 927.039 Q332.957 927.039 330.688 926.669 Q328.443 926.298 326.036 925.558 L326.036 920.859 Q328.119 921.993 330.341 922.548 Q332.563 923.104 335.04 923.104 Q339.045 923.104 341.383 920.998 Q343.721 918.891 343.721 915.28 Q343.721 911.669 341.383 909.562 Q339.045 907.456 335.04 907.456 Q333.165 907.456 331.29 907.873 Q329.438 908.289 327.494 909.169 L327.494 891.808 Z" fill="#000000" fill-rule="evenodd" fill-opacity="1" /><path clip-path="url(#clip310)" d="M481.823 891.808 L500.179 891.808 L500.179 895.743 L486.105 895.743 L486.105 904.215 Q487.124 903.868 488.142 903.706 Q489.161 903.521 490.179 903.521 Q495.966 903.521 499.346 906.692 Q502.726 909.863 502.726 915.28 Q502.726 920.859 499.253 923.96 Q495.781 927.039 489.462 927.039 Q487.286 927.039 485.017 926.669 Q482.772 926.298 480.365 925.558 L480.365 920.859 Q482.448 921.993 484.67 922.548 Q486.892 923.104 489.369 923.104 Q493.374 923.104 495.712 920.998 Q498.05 918.891 498.05 915.28 Q498.05 911.669 495.712 909.562 Q493.374 907.456 489.369 907.456 Q487.494 907.456 485.619 907.873 Q483.767 908.289 481.823 909.169 L481.823 891.808 Z" fill="#000000" fill-rule="evenodd" fill-opacity="1" /><path clip-path="url(#clip310)" d="M511.939 920.488 L516.823 920.488 L516.823 926.368 L511.939 926.368 L511.939 920.488 Z" fill="#000000" fill-rule="evenodd" fill-opacity="1" /><path clip-path="url(#clip310)" d="M537.008 894.887 Q533.397 894.887 531.568 898.451 Q529.762 901.993 529.762 909.123 Q529.762 916.229 531.568 919.794 Q533.397 923.335 537.008 923.335 Q540.642 923.335 542.448 919.794 Q544.276 916.229 544.276 909.123 Q544.276 901.993 542.448 898.451 Q540.642 894.887 537.008 894.887 M537.008 891.183 Q542.818 891.183 545.874 895.789 Q548.952 900.373 548.952 909.123 Q548.952 917.849 545.874 922.456 Q542.818 927.039 537.008 927.039 Q531.198 927.039 528.119 922.456 Q525.063 917.849 525.063 909.123 Q525.063 900.373 528.119 895.789 Q531.198 891.183 537.008 891.183 Z" fill="#000000" fill-rule="evenodd" fill-opacity="1" /><path clip-path="url(#clip310)" d="M681.129 891.808 L703.351 891.808 L703.351 893.799 L690.804 926.368 L685.92 926.368 L697.726 895.743 L681.129 895.743 L681.129 891.808 Z" fill="#000000" fill-rule="evenodd" fill-opacity="1" /><path clip-path="url(#clip310)" d="M712.471 920.488 L717.355 920.488 L717.355 926.368 L712.471 926.368 L712.471 920.488 Z" fill="#000000" fill-rule="evenodd" fill-opacity="1" /><path clip-path="url(#clip310)" d="M727.587 891.808 L745.943 891.808 L745.943 895.743 L731.869 895.743 L731.869 904.215 Q732.888 903.868 733.906 903.706 Q734.925 903.521 735.943 903.521 Q741.73 903.521 745.11 906.692 Q748.489 909.863 748.489 915.28 Q748.489 920.859 745.017 923.96 Q741.545 927.039 735.226 927.039 Q733.05 927.039 730.781 926.669 Q728.536 926.298 726.128 925.558 L726.128 920.859 Q728.212 921.993 730.434 922.548 Q732.656 923.104 735.133 923.104 Q739.138 923.104 741.475 920.998 Q743.813 918.891 743.813 915.28 Q743.813 911.669 741.475 909.562 Q739.138 907.456 735.133 907.456 Q733.258 907.456 731.383 907.873 Q729.531 908.289 727.587 909.169 L727.587 891.808 Z" fill="#000000" fill-rule="evenodd" fill-opacity="1" /><path clip-path="url(#clip310)" d="M867.031 922.433 L874.67 922.433 L874.67 896.067 L866.36 897.734 L866.36 893.475 L874.624 891.808 L879.3 891.808 L879.3 922.433 L886.939 922.433 L886.939 926.368 L867.031 926.368 L867.031 922.433 Z" fill="#000000" fill-rule="evenodd" fill-opacity="1" /><path clip-path="url(#clip310)" d="M906.383 894.887 Q902.772 894.887 900.943 898.451 Q899.138 901.993 899.138 909.123 Q899.138 916.229 900.943 919.794 Q902.772 923.335 906.383 923.335 Q910.017 923.335 911.823 919.794 Q913.652 916.229 913.652 909.123 Q913.652 901.993 911.823 898.451 Q910.017 894.887 906.383 894.887 M906.383 891.183 Q912.193 891.183 915.249 895.789 Q918.328 900.373 918.328 909.123 Q918.328 917.849 915.249 922.456 Q912.193 927.039 906.383 927.039 Q900.573 927.039 897.494 922.456 Q894.439 917.849 894.439 909.123 Q894.439 900.373 897.494 895.789 Q900.573 891.183 906.383 891.183 Z" fill="#000000" fill-rule="evenodd" fill-opacity="1" /><path clip-path="url(#clip310)" d="M926.545 920.488 L931.429 920.488 L931.429 926.368 L926.545 926.368 L926.545 920.488 Z" fill="#000000" fill-rule="evenodd" fill-opacity="1" /><path clip-path="url(#clip310)" d="M951.614 894.887 Q948.003 894.887 946.175 898.451 Q944.369 901.993 944.369 909.123 Q944.369 916.229 946.175 919.794 Q948.003 923.335 951.614 923.335 Q955.249 923.335 957.054 919.794 Q958.883 916.229 958.883 909.123 Q958.883 901.993 957.054 898.451 Q955.249 894.887 951.614 894.887 M951.614 891.183 Q957.425 891.183 960.48 895.789 Q963.559 900.373 963.559 909.123 Q963.559 917.849 960.48 922.456 Q957.425 927.039 951.614 927.039 Q945.804 927.039 942.726 922.456 Q939.67 917.849 939.67 909.123 Q939.67 900.373 942.726 895.789 Q945.804 891.183 951.614 891.183 Z" fill="#000000" fill-rule="evenodd" fill-opacity="1" /><polyline clip-path="url(#clip312)" style="stroke:#000000; stroke-linecap:round; stroke-linejoin:round; stroke-width:2; stroke-opacity:0.1; fill:none" points="98.1772,791.855 952.756,791.855 "/>
<polyline clip-path="url(#clip312)" style="stroke:#000000; stroke-linecap:round; stroke-linejoin:round; stroke-width:2; stroke-opacity:0.1; fill:none" points="98.1772,631.734 952.756,631.734 "/>
<polyline clip-path="url(#clip312)" style="stroke:#000000; stroke-linecap:round; stroke-linejoin:round; stroke-width:2; stroke-opacity:0.1; fill:none" points="98.1772,471.614 952.756,471.614 "/>
<polyline clip-path="url(#clip312)" style="stroke:#000000; stroke-linecap:round; stroke-linejoin:round; stroke-width:2; stroke-opacity:0.1; fill:none" points="98.1772,311.493 952.756,311.493 "/>
<polyline clip-path="url(#clip312)" style="stroke:#000000; stroke-linecap:round; stroke-linejoin:round; stroke-width:2; stroke-opacity:0.1; fill:none" points="98.1772,151.373 952.756,151.373 "/>
<polyline clip-path="url(#clip310)" style="stroke:#000000; stroke-linecap:round; stroke-linejoin:round; stroke-width:4; stroke-opacity:1; fill:none" points="98.1772,875.168 98.1772,47.2441 "/>
<polyline clip-path="url(#clip310)" style="stroke:#000000; stroke-linecap:round; stroke-linejoin:round; stroke-width:4; stroke-opacity:1; fill:none" points="98.1772,791.855 117.075,791.855 "/>
<polyline clip-path="url(#clip310)" style="stroke:#000000; stroke-linecap:round; stroke-linejoin:round; stroke-width:4; stroke-opacity:1; fill:none" points="98.1772,631.734 117.075,631.734 "/>
<polyline clip-path="url(#clip310)" style="stroke:#000000; stroke-linecap:round; stroke-linejoin:round; stroke-width:4; stroke-opacity:1; fill:none" points="98.1772,471.614 117.075,471.614 "/>
<polyline clip-path="url(#clip310)" style="stroke:#000000; stroke-linecap:round; stroke-linejoin:round; stroke-width:4; stroke-opacity:1; fill:none" points="98.1772,311.493 117.075,311.493 "/>
<polyline clip-path="url(#clip310)" style="stroke:#000000; stroke-linecap:round; stroke-linejoin:round; stroke-width:4; stroke-opacity:1; fill:none" points="98.1772,151.373 117.075,151.373 "/>
<path clip-path="url(#clip310)" d="M71.2328 777.653 Q67.6217 777.653 65.793 781.218 Q63.9875 784.76 63.9875 791.889 Q63.9875 798.996 65.793 802.561 Q67.6217 806.102 71.2328 806.102 Q74.867 806.102 76.6726 802.561 Q78.5013 798.996 78.5013 791.889 Q78.5013 784.76 76.6726 781.218 Q74.867 777.653 71.2328 777.653 M71.2328 773.95 Q77.0429 773.95 80.0985 778.556 Q83.1772 783.139 83.1772 791.889 Q83.1772 800.616 80.0985 805.223 Q77.0429 809.806 71.2328 809.806 Q65.4226 809.806 62.344 805.223 Q59.2884 800.616 59.2884 791.889 Q59.2884 783.139 62.344 778.556 Q65.4226 773.95 71.2328 773.95 Z" fill="#000000" fill-rule="evenodd" fill-opacity="1" /><path clip-path="url(#clip310)" d="M66.8578 645.079 L83.1772 645.079 L83.1772 649.014 L61.2328 649.014 L61.2328 645.079 Q63.8949 642.324 68.4782 637.695 Q73.0846 633.042 74.2652 631.7 Q76.5105 629.176 77.3902 627.44 Q78.2929 625.681 78.2929 623.991 Q78.2929 621.237 76.3485 619.501 Q74.4272 617.764 71.3254 617.764 Q69.1263 617.764 66.6726 618.528 Q64.2421 619.292 61.4643 620.843 L61.4643 616.121 Q64.2884 614.987 66.7421 614.408 Q69.1958 613.829 71.2328 613.829 Q76.6031 613.829 79.7976 616.514 Q82.992 619.2 82.992 623.69 Q82.992 625.82 82.1818 627.741 Q81.3948 629.639 79.2883 632.232 Q78.7096 632.903 75.6078 636.121 Q72.5059 639.315 66.8578 645.079 Z" fill="#000000" fill-rule="evenodd" fill-opacity="1" /><path clip-path="url(#clip310)" d="M73.5939 458.408 L61.7884 476.857 L73.5939 476.857 L73.5939 458.408 M72.367 454.334 L78.2466 454.334 L78.2466 476.857 L83.1772 476.857 L83.1772 480.746 L78.2466 480.746 L78.2466 488.894 L73.5939 488.894 L73.5939 480.746 L57.9921 480.746 L57.9921 476.232 L72.367 454.334 Z" fill="#000000" fill-rule="evenodd" fill-opacity="1" /><path clip-path="url(#clip310)" d="M71.6495 309.63 Q68.5013 309.63 66.6495 311.783 Q64.8208 313.936 64.8208 317.685 Q64.8208 321.412 66.6495 323.588 Q68.5013 325.741 71.6495 325.741 Q74.7976 325.741 76.6263 323.588 Q78.4781 321.412 78.4781 317.685 Q78.4781 313.936 76.6263 311.783 Q74.7976 309.63 71.6495 309.63 M80.9318 294.977 L80.9318 299.237 Q79.1726 298.403 77.367 297.963 Q75.5846 297.524 73.8254 297.524 Q69.1958 297.524 66.7421 300.649 Q64.3115 303.774 63.9643 310.093 Q65.33 308.079 67.3902 307.014 Q69.4504 305.926 71.9272 305.926 Q77.1355 305.926 80.1448 309.098 Q83.1772 312.246 83.1772 317.685 Q83.1772 323.01 80.029 326.227 Q76.8809 329.445 71.6495 329.445 Q65.6541 329.445 62.4828 324.861 Q59.3116 320.255 59.3116 311.528 Q59.3116 303.334 63.2004 298.473 Q67.0893 293.588 73.6402 293.588 Q75.3994 293.588 77.1818 293.936 Q78.9874 294.283 80.9318 294.977 Z" fill="#000000" fill-rule="evenodd" fill-opacity="1" /><path clip-path="url(#clip310)" d="M71.3254 152.241 Q67.9921 152.241 66.0708 154.023 Q64.1726 155.806 64.1726 158.931 Q64.1726 162.056 66.0708 163.838 Q67.9921 165.621 71.3254 165.621 Q74.6587 165.621 76.58 163.838 Q78.5013 162.033 78.5013 158.931 Q78.5013 155.806 76.58 154.023 Q74.6819 152.241 71.3254 152.241 M66.6495 150.25 Q63.6402 149.51 61.9504 147.449 Q60.2838 145.389 60.2838 142.426 Q60.2838 138.283 63.2236 135.875 Q66.1865 133.468 71.3254 133.468 Q76.4874 133.468 79.4272 135.875 Q82.367 138.283 82.367 142.426 Q82.367 145.389 80.6772 147.449 Q79.0105 149.51 76.0244 150.25 Q79.404 151.037 81.279 153.329 Q83.1772 155.621 83.1772 158.931 Q83.1772 163.954 80.0985 166.639 Q77.0429 169.324 71.3254 169.324 Q65.6078 169.324 62.5291 166.639 Q59.4736 163.954 59.4736 158.931 Q59.4736 155.621 61.3717 153.329 Q63.2699 151.037 66.6495 150.25 M64.9365 142.866 Q64.9365 145.551 66.6032 147.056 Q68.293 148.56 71.3254 148.56 Q74.3346 148.56 76.0244 147.056 Q77.7374 145.551 77.7374 142.866 Q77.7374 140.181 76.0244 138.676 Q74.3346 137.172 71.3254 137.172 Q68.293 137.172 66.6032 138.676 Q64.9365 140.181 64.9365 142.866 Z" fill="#000000" fill-rule="evenodd" fill-opacity="1" /><polyline clip-path="url(#clip312)" style="stroke:#000000; stroke-linecap:round; stroke-linejoin:round; stroke-width:4; stroke-opacity:1; fill:none" points="123.164,783.849 122.363,783.048 "/>
<polyline clip-path="url(#clip312)" style="stroke:#000000; stroke-linecap:round; stroke-linejoin:round; stroke-width:4; stroke-opacity:1; fill:none" points="122.363,783.048 122.363,724.604 "/>
<polyline clip-path="url(#clip312)" style="stroke:#000000; stroke-linecap:round; stroke-linejoin:round; stroke-width:4; stroke-opacity:1; fill:none" points="122.363,724.604 123.164,723.803 "/>
<polyline clip-path="url(#clip312)" style="stroke:#000000; stroke-linecap:round; stroke-linejoin:round; stroke-width:4; stroke-opacity:1; fill:none" points="123.164,723.803 123.164,702.988 "/>
<polyline clip-path="url(#clip312)" style="stroke:#000000; stroke-linecap:round; stroke-linejoin:round; stroke-width:4; stroke-opacity:1; fill:none" points="123.164,702.988 122.363,702.187 "/>
<polyline clip-path="url(#clip312)" style="stroke:#000000; stroke-linecap:round; stroke-linejoin:round; stroke-width:4; stroke-opacity:1; fill:none" points="122.363,702.187 122.363,642.142 "/>
<polyline clip-path="url(#clip312)" style="stroke:#000000; stroke-linecap:round; stroke-linejoin:round; stroke-width:4; stroke-opacity:1; fill:none" points="122.363,642.142 123.164,642.142 "/>
<polyline clip-path="url(#clip312)" style="stroke:#000000; stroke-linecap:round; stroke-linejoin:round; stroke-width:4; stroke-opacity:1; fill:none" points="123.164,642.142 123.965,641.341 "/>
<polyline clip-path="url(#clip312)" style="stroke:#000000; stroke-linecap:round; stroke-linejoin:round; stroke-width:4; stroke-opacity:1; fill:none" points="123.965,641.341 123.965,610.118 "/>
<polyline clip-path="url(#clip312)" style="stroke:#000000; stroke-linecap:round; stroke-linejoin:round; stroke-width:4; stroke-opacity:1; fill:none" points="123.965,610.118 124.765,609.317 "/>
<polyline clip-path="url(#clip312)" style="stroke:#000000; stroke-linecap:round; stroke-linejoin:round; stroke-width:4; stroke-opacity:1; fill:none" points="124.765,609.317 124.765,590.103 "/>
<polyline clip-path="url(#clip312)" style="stroke:#000000; stroke-linecap:round; stroke-linejoin:round; stroke-width:4; stroke-opacity:1; fill:none" points="124.765,590.103 178.406,590.103 "/>
<polyline clip-path="url(#clip312)" style="stroke:#000000; stroke-linecap:round; stroke-linejoin:round; stroke-width:4; stroke-opacity:1; fill:none" points="178.406,590.103 179.206,589.302 "/>
<polyline clip-path="url(#clip312)" style="stroke:#000000; stroke-linecap:round; stroke-linejoin:round; stroke-width:4; stroke-opacity:1; fill:none" points="179.206,589.302 290.49,589.302 "/>
<polyline clip-path="url(#clip312)" style="stroke:#000000; stroke-linecap:round; stroke-linejoin:round; stroke-width:4; stroke-opacity:1; fill:none" points="290.49,589.302 291.29,588.502 "/>
<polyline clip-path="url(#clip312)" style="stroke:#000000; stroke-linecap:round; stroke-linejoin:round; stroke-width:4; stroke-opacity:1; fill:none" points="291.29,588.502 347.333,588.502 "/>
<polyline clip-path="url(#clip312)" style="stroke:#000000; stroke-linecap:round; stroke-linejoin:round; stroke-width:4; stroke-opacity:1; fill:none" points="347.333,588.502 348.934,586.901 "/>
<polyline clip-path="url(#clip312)" style="stroke:#000000; stroke-linecap:round; stroke-linejoin:round; stroke-width:4; stroke-opacity:1; fill:none" points="348.934,586.901 348.934,554.876 "/>
<polyline clip-path="url(#clip312)" style="stroke:#000000; stroke-linecap:round; stroke-linejoin:round; stroke-width:4; stroke-opacity:1; fill:none" points="348.934,554.876 348.133,554.076 "/>
<polyline clip-path="url(#clip312)" style="stroke:#000000; stroke-linecap:round; stroke-linejoin:round; stroke-width:4; stroke-opacity:1; fill:none" points="348.133,554.076 340.928,554.076 "/>
<polyline clip-path="url(#clip312)" style="stroke:#000000; stroke-linecap:round; stroke-linejoin:round; stroke-width:4; stroke-opacity:1; fill:none" points="340.928,554.076 340.127,554.876 "/>
<polyline clip-path="url(#clip312)" style="stroke:#000000; stroke-linecap:round; stroke-linejoin:round; stroke-width:4; stroke-opacity:1; fill:none" points="340.127,554.876 340.127,578.894 "/>
<polyline clip-path="url(#clip312)" style="stroke:#000000; stroke-linecap:round; stroke-linejoin:round; stroke-width:4; stroke-opacity:1; fill:none" points="340.127,578.894 291.29,578.894 "/>
<polyline clip-path="url(#clip312)" style="stroke:#000000; stroke-linecap:round; stroke-linejoin:round; stroke-width:4; stroke-opacity:1; fill:none" points="291.29,578.894 290.49,579.695 "/>
<polyline clip-path="url(#clip312)" style="stroke:#000000; stroke-linecap:round; stroke-linejoin:round; stroke-width:4; stroke-opacity:1; fill:none" points="290.49,579.695 179.206,579.695 "/>
<polyline clip-path="url(#clip312)" style="stroke:#000000; stroke-linecap:round; stroke-linejoin:round; stroke-width:4; stroke-opacity:1; fill:none" points="179.206,579.695 178.406,580.496 "/>
<polyline clip-path="url(#clip312)" style="stroke:#000000; stroke-linecap:round; stroke-linejoin:round; stroke-width:4; stroke-opacity:1; fill:none" points="178.406,580.496 125.566,580.496 "/>
<polyline clip-path="url(#clip312)" style="stroke:#000000; stroke-linecap:round; stroke-linejoin:round; stroke-width:4; stroke-opacity:1; fill:none" points="125.566,580.496 125.566,558.879 "/>
<polyline clip-path="url(#clip312)" style="stroke:#000000; stroke-linecap:round; stroke-linejoin:round; stroke-width:4; stroke-opacity:1; fill:none" points="125.566,558.879 126.366,558.079 "/>
<polyline clip-path="url(#clip312)" style="stroke:#000000; stroke-linecap:round; stroke-linejoin:round; stroke-width:4; stroke-opacity:1; fill:none" points="126.366,558.079 126.366,507.641 "/>
<polyline clip-path="url(#clip312)" style="stroke:#000000; stroke-linecap:round; stroke-linejoin:round; stroke-width:4; stroke-opacity:1; fill:none" points="126.366,507.641 127.167,506.84 "/>
<polyline clip-path="url(#clip312)" style="stroke:#000000; stroke-linecap:round; stroke-linejoin:round; stroke-width:4; stroke-opacity:1; fill:none" points="127.167,506.84 127.167,456.402 "/>
<polyline clip-path="url(#clip312)" style="stroke:#000000; stroke-linecap:round; stroke-linejoin:round; stroke-width:4; stroke-opacity:1; fill:none" points="127.167,456.402 127.968,455.602 "/>
<polyline clip-path="url(#clip312)" style="stroke:#000000; stroke-linecap:round; stroke-linejoin:round; stroke-width:4; stroke-opacity:1; fill:none" points="127.968,455.602 127.968,405.164 "/>
<polyline clip-path="url(#clip312)" style="stroke:#000000; stroke-linecap:round; stroke-linejoin:round; stroke-width:4; stroke-opacity:1; fill:none" points="127.968,405.164 128.768,404.363 "/>
<polyline clip-path="url(#clip312)" style="stroke:#000000; stroke-linecap:round; stroke-linejoin:round; stroke-width:4; stroke-opacity:1; fill:none" points="128.768,404.363 128.768,387.551 "/>
<polyline clip-path="url(#clip312)" style="stroke:#000000; stroke-linecap:round; stroke-linejoin:round; stroke-width:4; stroke-opacity:1; fill:none" points="128.768,387.551 159.992,387.551 "/>
<polyline clip-path="url(#clip312)" style="stroke:#000000; stroke-linecap:round; stroke-linejoin:round; stroke-width:4; stroke-opacity:1; fill:none" points="159.992,387.551 160.792,386.75 "/>
<polyline clip-path="url(#clip312)" style="stroke:#000000; stroke-linecap:round; stroke-linejoin:round; stroke-width:4; stroke-opacity:1; fill:none" points="160.792,386.75 241.653,386.75 "/>
<polyline clip-path="url(#clip312)" style="stroke:#000000; stroke-linecap:round; stroke-linejoin:round; stroke-width:4; stroke-opacity:1; fill:none" points="241.653,386.75 242.454,385.949 "/>
<polyline clip-path="url(#clip312)" style="stroke:#000000; stroke-linecap:round; stroke-linejoin:round; stroke-width:4; stroke-opacity:1; fill:none" points="242.454,385.949 322.514,385.949 "/>
<polyline clip-path="url(#clip312)" style="stroke:#000000; stroke-linecap:round; stroke-linejoin:round; stroke-width:4; stroke-opacity:1; fill:none" points="322.514,385.949 323.315,385.149 "/>
<polyline clip-path="url(#clip312)" style="stroke:#000000; stroke-linecap:round; stroke-linejoin:round; stroke-width:4; stroke-opacity:1; fill:none" points="323.315,385.149 340.127,385.149 "/>
<polyline clip-path="url(#clip312)" style="stroke:#000000; stroke-linecap:round; stroke-linejoin:round; stroke-width:4; stroke-opacity:1; fill:none" points="340.127,385.149 340.127,494.031 "/>
<polyline clip-path="url(#clip312)" style="stroke:#000000; stroke-linecap:round; stroke-linejoin:round; stroke-width:4; stroke-opacity:1; fill:none" points="340.127,494.031 340.928,494.831 "/>
<polyline clip-path="url(#clip312)" style="stroke:#000000; stroke-linecap:round; stroke-linejoin:round; stroke-width:4; stroke-opacity:1; fill:none" points="340.928,494.831 348.133,494.831 "/>
<polyline clip-path="url(#clip312)" style="stroke:#000000; stroke-linecap:round; stroke-linejoin:round; stroke-width:4; stroke-opacity:1; fill:none" points="348.133,494.831 348.934,494.031 "/>
<polyline clip-path="url(#clip312)" style="stroke:#000000; stroke-linecap:round; stroke-linejoin:round; stroke-width:4; stroke-opacity:1; fill:none" points="348.934,494.031 348.934,384.348 "/>
<polyline clip-path="url(#clip312)" style="stroke:#000000; stroke-linecap:round; stroke-linejoin:round; stroke-width:4; stroke-opacity:1; fill:none" points="348.934,384.348 372.151,384.348 "/>
<polyline clip-path="url(#clip312)" style="stroke:#000000; stroke-linecap:round; stroke-linejoin:round; stroke-width:4; stroke-opacity:1; fill:none" points="372.151,384.348 372.952,385.149 "/>
<polyline clip-path="url(#clip312)" style="stroke:#000000; stroke-linecap:round; stroke-linejoin:round; stroke-width:4; stroke-opacity:1; fill:none" points="372.952,385.149 482.634,385.149 "/>
<polyline clip-path="url(#clip312)" style="stroke:#000000; stroke-linecap:round; stroke-linejoin:round; stroke-width:4; stroke-opacity:1; fill:none" points="482.634,385.149 483.435,385.949 "/>
<polyline clip-path="url(#clip312)" style="stroke:#000000; stroke-linecap:round; stroke-linejoin:round; stroke-width:4; stroke-opacity:1; fill:none" points="483.435,385.949 517.861,385.949 "/>
<polyline clip-path="url(#clip312)" style="stroke:#000000; stroke-linecap:round; stroke-linejoin:round; stroke-width:4; stroke-opacity:1; fill:none" points="517.861,385.949 517.861,433.185 "/>
<polyline clip-path="url(#clip312)" style="stroke:#000000; stroke-linecap:round; stroke-linejoin:round; stroke-width:4; stroke-opacity:1; fill:none" points="517.861,433.185 517.06,433.986 "/>
<polyline clip-path="url(#clip312)" style="stroke:#000000; stroke-linecap:round; stroke-linejoin:round; stroke-width:4; stroke-opacity:1; fill:none" points="517.06,433.986 517.06,437.188 "/>
<polyline clip-path="url(#clip312)" style="stroke:#000000; stroke-linecap:round; stroke-linejoin:round; stroke-width:4; stroke-opacity:1; fill:none" points="517.06,437.188 517.861,437.989 "/>
<polyline clip-path="url(#clip312)" style="stroke:#000000; stroke-linecap:round; stroke-linejoin:round; stroke-width:4; stroke-opacity:1; fill:none" points="517.861,437.989 529.069,437.989 "/>
<polyline clip-path="url(#clip312)" style="stroke:#000000; stroke-linecap:round; stroke-linejoin:round; stroke-width:4; stroke-opacity:1; fill:none" points="529.069,437.989 529.87,437.188 "/>
<polyline clip-path="url(#clip312)" style="stroke:#000000; stroke-linecap:round; stroke-linejoin:round; stroke-width:4; stroke-opacity:1; fill:none" points="529.87,437.188 529.87,379.545 "/>
<polyline clip-path="url(#clip312)" style="stroke:#000000; stroke-linecap:round; stroke-linejoin:round; stroke-width:4; stroke-opacity:1; fill:none" points="529.87,379.545 529.069,378.744 "/>
<polyline clip-path="url(#clip312)" style="stroke:#000000; stroke-linecap:round; stroke-linejoin:round; stroke-width:4; stroke-opacity:1; fill:none" points="529.069,378.744 529.069,377.943 "/>
<polyline clip-path="url(#clip312)" style="stroke:#000000; stroke-linecap:round; stroke-linejoin:round; stroke-width:4; stroke-opacity:1; fill:none" points="529.069,377.943 528.269,377.143 "/>
<polyline clip-path="url(#clip312)" style="stroke:#000000; stroke-linecap:round; stroke-linejoin:round; stroke-width:4; stroke-opacity:1; fill:none" points="528.269,377.143 527.468,377.143 "/>
<polyline clip-path="url(#clip312)" style="stroke:#000000; stroke-linecap:round; stroke-linejoin:round; stroke-width:4; stroke-opacity:1; fill:none" points="527.468,377.143 527.468,373.14 "/>
<polyline clip-path="url(#clip312)" style="stroke:#000000; stroke-linecap:round; stroke-linejoin:round; stroke-width:4; stroke-opacity:1; fill:none" points="527.468,373.14 528.269,372.339 "/>
<polyline clip-path="url(#clip312)" style="stroke:#000000; stroke-linecap:round; stroke-linejoin:round; stroke-width:4; stroke-opacity:1; fill:none" points="528.269,372.339 528.269,303.487 "/>
<polyline clip-path="url(#clip312)" style="stroke:#000000; stroke-linecap:round; stroke-linejoin:round; stroke-width:4; stroke-opacity:1; fill:none" points="528.269,303.487 529.069,302.687 "/>
<polyline clip-path="url(#clip312)" style="stroke:#000000; stroke-linecap:round; stroke-linejoin:round; stroke-width:4; stroke-opacity:1; fill:none" points="529.069,302.687 529.069,233.835 "/>
<polyline clip-path="url(#clip312)" style="stroke:#000000; stroke-linecap:round; stroke-linejoin:round; stroke-width:4; stroke-opacity:1; fill:none" points="529.069,233.835 529.87,233.034 "/>
<polyline clip-path="url(#clip312)" style="stroke:#000000; stroke-linecap:round; stroke-linejoin:round; stroke-width:4; stroke-opacity:1; fill:none" points="529.87,233.034 529.87,164.983 "/>
<polyline clip-path="url(#clip312)" style="stroke:#000000; stroke-linecap:round; stroke-linejoin:round; stroke-width:4; stroke-opacity:1; fill:none" points="529.87,164.983 530.67,164.183 "/>
<polyline clip-path="url(#clip312)" style="stroke:#000000; stroke-linecap:round; stroke-linejoin:round; stroke-width:4; stroke-opacity:1; fill:none" points="530.67,164.183 530.67,138.563 "/>
<polyline clip-path="url(#clip312)" style="stroke:#000000; stroke-linecap:round; stroke-linejoin:round; stroke-width:4; stroke-opacity:1; fill:none" points="530.67,138.563 728.419,138.563 "/>
<polyline clip-path="url(#clip312)" style="stroke:#000000; stroke-linecap:round; stroke-linejoin:round; stroke-width:4; stroke-opacity:1; fill:none" points="728.419,138.563 728.419,336.312 "/>
<polyline clip-path="url(#clip312)" style="stroke:#000000; stroke-linecap:round; stroke-linejoin:round; stroke-width:4; stroke-opacity:1; fill:none" points="728.419,336.312 730.02,337.913 "/>
<polyline clip-path="url(#clip312)" style="stroke:#000000; stroke-linecap:round; stroke-linejoin:round; stroke-width:4; stroke-opacity:1; fill:none" points="730.02,337.913 737.226,337.913 "/>
<polyline clip-path="url(#clip312)" style="stroke:#000000; stroke-linecap:round; stroke-linejoin:round; stroke-width:4; stroke-opacity:1; fill:none" points="737.226,337.913 738.026,338.714 "/>
<polyline clip-path="url(#clip312)" style="stroke:#000000; stroke-linecap:round; stroke-linejoin:round; stroke-width:4; stroke-opacity:1; fill:none" points="738.026,338.714 928.57,338.714 "/>
<polyline clip-path="url(#clip312)" style="stroke:#000000; stroke-linecap:round; stroke-linejoin:round; stroke-width:4; stroke-opacity:1; fill:none" points="928.57,338.714 928.57,537.263 "/>
<polyline clip-path="url(#clip312)" style="stroke:#000000; stroke-linecap:round; stroke-linejoin:round; stroke-width:4; stroke-opacity:1; fill:none" points="928.57,537.263 927.769,536.463 "/>
<polyline clip-path="url(#clip312)" style="stroke:#000000; stroke-linecap:round; stroke-linejoin:round; stroke-width:4; stroke-opacity:1; fill:none" points="927.769,536.463 840.503,536.463 "/>
<polyline clip-path="url(#clip312)" style="stroke:#000000; stroke-linecap:round; stroke-linejoin:round; stroke-width:4; stroke-opacity:1; fill:none" points="840.503,536.463 839.703,537.263 "/>
<polyline clip-path="url(#clip312)" style="stroke:#000000; stroke-linecap:round; stroke-linejoin:round; stroke-width:4; stroke-opacity:1; fill:none" points="839.703,537.263 751.637,537.263 "/>
<polyline clip-path="url(#clip312)" style="stroke:#000000; stroke-linecap:round; stroke-linejoin:round; stroke-width:4; stroke-opacity:1; fill:none" points="751.637,537.263 750.836,538.064 "/>
<polyline clip-path="url(#clip312)" style="stroke:#000000; stroke-linecap:round; stroke-linejoin:round; stroke-width:4; stroke-opacity:1; fill:none" points="750.836,538.064 750.836,546.07 "/>
<polyline clip-path="url(#clip312)" style="stroke:#000000; stroke-linecap:round; stroke-linejoin:round; stroke-width:4; stroke-opacity:1; fill:none" points="750.836,546.07 751.637,546.87 "/>
<polyline clip-path="url(#clip312)" style="stroke:#000000; stroke-linecap:round; stroke-linejoin:round; stroke-width:4; stroke-opacity:1; fill:none" points="751.637,546.87 846.108,546.87 "/>
<polyline clip-path="url(#clip312)" style="stroke:#000000; stroke-linecap:round; stroke-linejoin:round; stroke-width:4; stroke-opacity:1; fill:none" points="846.108,546.87 846.908,546.07 "/>
<polyline clip-path="url(#clip312)" style="stroke:#000000; stroke-linecap:round; stroke-linejoin:round; stroke-width:4; stroke-opacity:1; fill:none" points="846.908,546.07 928.57,546.07 "/>
<polyline clip-path="url(#clip312)" style="stroke:#000000; stroke-linecap:round; stroke-linejoin:round; stroke-width:4; stroke-opacity:1; fill:none" points="928.57,546.07 928.57,783.849 "/>
<polyline clip-path="url(#clip312)" style="stroke:#000000; stroke-linecap:round; stroke-linejoin:round; stroke-width:4; stroke-opacity:1; fill:none" points="928.57,783.849 834.899,783.849 "/>
<polyline clip-path="url(#clip312)" style="stroke:#000000; stroke-linecap:round; stroke-linejoin:round; stroke-width:4; stroke-opacity:1; fill:none" points="834.899,783.849 834.099,783.048 "/>
<polyline clip-path="url(#clip312)" style="stroke:#000000; stroke-linecap:round; stroke-linejoin:round; stroke-width:4; stroke-opacity:1; fill:none" points="834.099,783.048 629.945,783.048 "/>
<polyline clip-path="url(#clip312)" style="stroke:#000000; stroke-linecap:round; stroke-linejoin:round; stroke-width:4; stroke-opacity:1; fill:none" points="629.945,783.048 629.145,782.247 "/>
<polyline clip-path="url(#clip312)" style="stroke:#000000; stroke-linecap:round; stroke-linejoin:round; stroke-width:4; stroke-opacity:1; fill:none" points="629.145,782.247 533.873,782.247 "/>
<polyline clip-path="url(#clip312)" style="stroke:#000000; stroke-linecap:round; stroke-linejoin:round; stroke-width:4; stroke-opacity:1; fill:none" points="533.873,782.247 533.873,755.027 "/>
<polyline clip-path="url(#clip312)" style="stroke:#000000; stroke-linecap:round; stroke-linejoin:round; stroke-width:4; stroke-opacity:1; fill:none" points="533.873,755.027 533.072,754.226 "/>
<polyline clip-path="url(#clip312)" style="stroke:#000000; stroke-linecap:round; stroke-linejoin:round; stroke-width:4; stroke-opacity:1; fill:none" points="533.072,754.226 533.072,683.773 "/>
<polyline clip-path="url(#clip312)" style="stroke:#000000; stroke-linecap:round; stroke-linejoin:round; stroke-width:4; stroke-opacity:1; fill:none" points="533.072,683.773 532.272,682.973 "/>
<polyline clip-path="url(#clip312)" style="stroke:#000000; stroke-linecap:round; stroke-linejoin:round; stroke-width:4; stroke-opacity:1; fill:none" points="532.272,682.973 532.272,611.719 "/>
<polyline clip-path="url(#clip312)" style="stroke:#000000; stroke-linecap:round; stroke-linejoin:round; stroke-width:4; stroke-opacity:1; fill:none" points="532.272,611.719 531.471,610.919 "/>
<polyline clip-path="url(#clip312)" style="stroke:#000000; stroke-linecap:round; stroke-linejoin:round; stroke-width:4; stroke-opacity:1; fill:none" points="531.471,610.919 531.471,547.671 "/>
<polyline clip-path="url(#clip312)" style="stroke:#000000; stroke-linecap:round; stroke-linejoin:round; stroke-width:4; stroke-opacity:1; fill:none" points="531.471,547.671 608.329,547.671 "/>
<polyline clip-path="url(#clip312)" style="stroke:#000000; stroke-linecap:round; stroke-linejoin:round; stroke-width:4; stroke-opacity:1; fill:none" points="608.329,547.671 609.129,546.87 "/>
<polyline clip-path="url(#clip312)" style="stroke:#000000; stroke-linecap:round; stroke-linejoin:round; stroke-width:4; stroke-opacity:1; fill:none" points="609.129,546.87 690.791,546.87 "/>
<polyline clip-path="url(#clip312)" style="stroke:#000000; stroke-linecap:round; stroke-linejoin:round; stroke-width:4; stroke-opacity:1; fill:none" points="690.791,546.87 691.591,546.07 "/>
<polyline clip-path="url(#clip312)" style="stroke:#000000; stroke-linecap:round; stroke-linejoin:round; stroke-width:4; stroke-opacity:1; fill:none" points="691.591,546.07 691.591,538.064 "/>
<polyline clip-path="url(#clip312)" style="stroke:#000000; stroke-linecap:round; stroke-linejoin:round; stroke-width:4; stroke-opacity:1; fill:none" points="691.591,538.064 690.791,537.263 "/>
<polyline clip-path="url(#clip312)" style="stroke:#000000; stroke-linecap:round; stroke-linejoin:round; stroke-width:4; stroke-opacity:1; fill:none" points="690.791,537.263 689.99,538.064 "/>
<polyline clip-path="url(#clip312)" style="stroke:#000000; stroke-linecap:round; stroke-linejoin:round; stroke-width:4; stroke-opacity:1; fill:none" points="689.99,538.064 602.725,538.064 "/>
<polyline clip-path="url(#clip312)" style="stroke:#000000; stroke-linecap:round; stroke-linejoin:round; stroke-width:4; stroke-opacity:1; fill:none" points="602.725,538.064 601.924,538.864 "/>
<polyline clip-path="url(#clip312)" style="stroke:#000000; stroke-linecap:round; stroke-linejoin:round; stroke-width:4; stroke-opacity:1; fill:none" points="601.924,538.864 530.67,538.864 "/>
<polyline clip-path="url(#clip312)" style="stroke:#000000; stroke-linecap:round; stroke-linejoin:round; stroke-width:4; stroke-opacity:1; fill:none" points="530.67,538.864 530.67,498.034 "/>
<polyline clip-path="url(#clip312)" style="stroke:#000000; stroke-linecap:round; stroke-linejoin:round; stroke-width:4; stroke-opacity:1; fill:none" points="530.67,498.034 529.87,497.233 "/>
<polyline clip-path="url(#clip312)" style="stroke:#000000; stroke-linecap:round; stroke-linejoin:round; stroke-width:4; stroke-opacity:1; fill:none" points="529.87,497.233 517.861,497.233 "/>
<polyline clip-path="url(#clip312)" style="stroke:#000000; stroke-linecap:round; stroke-linejoin:round; stroke-width:4; stroke-opacity:1; fill:none" points="517.861,497.233 517.06,498.034 "/>
<polyline clip-path="url(#clip312)" style="stroke:#000000; stroke-linecap:round; stroke-linejoin:round; stroke-width:4; stroke-opacity:1; fill:none" points="517.06,498.034 517.06,520.451 "/>
<polyline clip-path="url(#clip312)" style="stroke:#000000; stroke-linecap:round; stroke-linejoin:round; stroke-width:4; stroke-opacity:1; fill:none" points="517.06,520.451 516.26,521.251 "/>
<polyline clip-path="url(#clip312)" style="stroke:#000000; stroke-linecap:round; stroke-linejoin:round; stroke-width:4; stroke-opacity:1; fill:none" points="516.26,521.251 516.26,550.873 "/>
<polyline clip-path="url(#clip312)" style="stroke:#000000; stroke-linecap:round; stroke-linejoin:round; stroke-width:4; stroke-opacity:1; fill:none" points="516.26,550.873 517.06,551.674 "/>
<polyline clip-path="url(#clip312)" style="stroke:#000000; stroke-linecap:round; stroke-linejoin:round; stroke-width:4; stroke-opacity:1; fill:none" points="517.06,551.674 517.06,573.29 "/>
<polyline clip-path="url(#clip312)" style="stroke:#000000; stroke-linecap:round; stroke-linejoin:round; stroke-width:4; stroke-opacity:1; fill:none" points="517.06,573.29 517.861,574.091 "/>
<polyline clip-path="url(#clip312)" style="stroke:#000000; stroke-linecap:round; stroke-linejoin:round; stroke-width:4; stroke-opacity:1; fill:none" points="517.861,574.091 517.861,594.907 "/>
<polyline clip-path="url(#clip312)" style="stroke:#000000; stroke-linecap:round; stroke-linejoin:round; stroke-width:4; stroke-opacity:1; fill:none" points="517.861,594.907 518.661,595.707 "/>
<polyline clip-path="url(#clip312)" style="stroke:#000000; stroke-linecap:round; stroke-linejoin:round; stroke-width:4; stroke-opacity:1; fill:none" points="518.661,595.707 518.661,616.523 "/>
<polyline clip-path="url(#clip312)" style="stroke:#000000; stroke-linecap:round; stroke-linejoin:round; stroke-width:4; stroke-opacity:1; fill:none" points="518.661,616.523 519.462,617.323 "/>
<polyline clip-path="url(#clip312)" style="stroke:#000000; stroke-linecap:round; stroke-linejoin:round; stroke-width:4; stroke-opacity:1; fill:none" points="519.462,617.323 519.462,638.94 "/>
<polyline clip-path="url(#clip312)" style="stroke:#000000; stroke-linecap:round; stroke-linejoin:round; stroke-width:4; stroke-opacity:1; fill:none" points="519.462,638.94 520.263,639.74 "/>
<polyline clip-path="url(#clip312)" style="stroke:#000000; stroke-linecap:round; stroke-linejoin:round; stroke-width:4; stroke-opacity:1; fill:none" points="520.263,639.74 520.263,660.556 "/>
<polyline clip-path="url(#clip312)" style="stroke:#000000; stroke-linecap:round; stroke-linejoin:round; stroke-width:4; stroke-opacity:1; fill:none" points="520.263,660.556 521.063,661.357 "/>
<polyline clip-path="url(#clip312)" style="stroke:#000000; stroke-linecap:round; stroke-linejoin:round; stroke-width:4; stroke-opacity:1; fill:none" points="521.063,661.357 521.063,682.172 "/>
<polyline clip-path="url(#clip312)" style="stroke:#000000; stroke-linecap:round; stroke-linejoin:round; stroke-width:4; stroke-opacity:1; fill:none" points="521.063,682.172 521.864,682.973 "/>
<polyline clip-path="url(#clip312)" style="stroke:#000000; stroke-linecap:round; stroke-linejoin:round; stroke-width:4; stroke-opacity:1; fill:none" points="521.864,682.973 521.864,704.589 "/>
<polyline clip-path="url(#clip312)" style="stroke:#000000; stroke-linecap:round; stroke-linejoin:round; stroke-width:4; stroke-opacity:1; fill:none" points="521.864,704.589 522.664,705.39 "/>
<polyline clip-path="url(#clip312)" style="stroke:#000000; stroke-linecap:round; stroke-linejoin:round; stroke-width:4; stroke-opacity:1; fill:none" points="522.664,705.39 522.664,726.205 "/>
<polyline clip-path="url(#clip312)" style="stroke:#000000; stroke-linecap:round; stroke-linejoin:round; stroke-width:4; stroke-opacity:1; fill:none" points="522.664,726.205 523.465,727.006 "/>
<polyline clip-path="url(#clip312)" style="stroke:#000000; stroke-linecap:round; stroke-linejoin:round; stroke-width:4; stroke-opacity:1; fill:none" points="523.465,727.006 523.465,747.822 "/>
<polyline clip-path="url(#clip312)" style="stroke:#000000; stroke-linecap:round; stroke-linejoin:round; stroke-width:4; stroke-opacity:1; fill:none" points="523.465,747.822 524.266,748.622 "/>
<polyline clip-path="url(#clip312)" style="stroke:#000000; stroke-linecap:round; stroke-linejoin:round; stroke-width:4; stroke-opacity:1; fill:none" points="524.266,748.622 524.266,770.238 "/>
<polyline clip-path="url(#clip312)" style="stroke:#000000; stroke-linecap:round; stroke-linejoin:round; stroke-width:4; stroke-opacity:1; fill:none" points="524.266,770.238 525.066,771.039 "/>
<polyline clip-path="url(#clip312)" style="stroke:#000000; stroke-linecap:round; stroke-linejoin:round; stroke-width:4; stroke-opacity:1; fill:none" points="525.066,771.039 525.066,782.247 "/>
<polyline clip-path="url(#clip312)" style="stroke:#000000; stroke-linecap:round; stroke-linejoin:round; stroke-width:4; stroke-opacity:1; fill:none" points="525.066,782.247 428.994,782.247 "/>
<polyline clip-path="url(#clip312)" style="stroke:#000000; stroke-linecap:round; stroke-linejoin:round; stroke-width:4; stroke-opacity:1; fill:none" points="428.994,782.247 428.193,783.048 "/>
<polyline clip-path="url(#clip312)" style="stroke:#000000; stroke-linecap:round; stroke-linejoin:round; stroke-width:4; stroke-opacity:1; fill:none" points="428.193,783.048 226.442,783.048 "/>
<polyline clip-path="url(#clip312)" style="stroke:#000000; stroke-linecap:round; stroke-linejoin:round; stroke-width:4; stroke-opacity:1; fill:none" points="226.442,783.048 225.641,783.849 "/>
<polyline clip-path="url(#clip312)" style="stroke:#000000; stroke-linecap:round; stroke-linejoin:round; stroke-width:4; stroke-opacity:1; fill:none" points="225.641,783.849 123.164,783.849 "/>
<polyline clip-path="url(#clip312)" style="stroke:#000000; stroke-linecap:round; stroke-linejoin:round; stroke-width:4; stroke-opacity:1; fill:none" points="123.164,783.849 123.164,783.849 "/>
<circle clip-path="url(#clip312)" cx="525.467" cy="461.206" r="14.4" fill="#ff0000" fill-rule="evenodd" fill-opacity="1" stroke="#000000" stroke-opacity="1" stroke-width="2"/>
</svg>
